<svg viewBox="0 0 1920 1080" xmlns="http://www.w3.org/2000/svg">
  <rect width="1920" height="1080" fill="#ffffff"/>
  <circle cx="380" cy="400" r="260" fill="#b8acff" opacity="0.06"/>
  <circle cx="1550" cy="380" r="290" fill="#ffab00" opacity="0.04"/>
  <circle cx="750" cy="150" r="170" fill="#00c7e6" opacity="0.04"/>
  <g id="database">
    <ellipse cx="360" cy="390" rx="110" ry="40" fill="#9f8fef" opacity="0.12" stroke="#9f8fef" stroke-width="5"/>
    <line x1="250" y1="390" x2="250" y2="550" stroke="#9f8fef" stroke-width="5"/>
    <line x1="470" y1="390" x2="470" y2="550" stroke="#9f8fef" stroke-width="5"/>
    <ellipse cx="360" cy="550" rx="110" ry="40" fill="#b8acff" opacity="0.1" stroke="#9f8fef" stroke-width="5"/>
    <ellipse cx="360" cy="465" rx="110" ry="30" fill="none" stroke="#9f8fef" stroke-width="2" opacity="0.25"/>
  </g>
  <g id="layers">
    <rect x="830" y="520" width="260" height="55" rx="10" fill="#ffab00" opacity="0.2" stroke="#ffab00" stroke-width="4"/>
    <rect x="830" y="460" width="260" height="55" rx="10" fill="#30363d" opacity="0.15" stroke="#30363d" stroke-width="4"/>
    <rect x="830" y="400" width="260" height="55" rx="10" fill="#ff5630" opacity="0.15" stroke="#ff5630" stroke-width="4"/>
  </g>
  <g id="ingest">
    <rect x="1490" y="500" width="140" height="100" rx="16" fill="#4a9eff" opacity="0.08" stroke="#4a9eff" stroke-width="4"/>
    <polyline points="1560,390 1560,490" fill="none" stroke="#4a9eff" stroke-width="8" stroke-linecap="round"/>
    <polyline points="1525,460 1560,495 1595,460" fill="none" stroke="#4a9eff" stroke-width="8" stroke-linecap="round" stroke-linejoin="round"/>
  </g>
  <!-- GRID PROTOCOL MANIFEST
  template: Icon Banner
  grid_cells_used: 0-15,0-8
  font_sizes: []
  min_font_size: n/a
  text_elements: 0
  palette_colors: [#ffffff, #4a9eff, #9f8fef, #b8acff, #ffab00, #ff5630, #30363d, #00c7e6]
  -->
</svg>