<svg viewBox="0 0 1920 1080" xmlns="http://www.w3.org/2000/svg">
  <rect width="1920" height="1080" fill="#ffffff"/>
  <circle cx="340" cy="400" r="260" fill="#4a9eff" opacity="0.05"/>
  <circle cx="1580" cy="380" r="280" fill="#00c7e6" opacity="0.04"/>
  <circle cx="960" cy="180" r="190" fill="#ffab00" opacity="0.04"/>
  <g id="workflow">
    <circle cx="280" cy="400" r="50" fill="#4a9eff" opacity="0.12" stroke="#4a9eff" stroke-width="5"/>
    <circle cx="440" cy="340" r="50" fill="#9f8fef" opacity="0.12" stroke="#9f8fef" stroke-width="5"/>
    <circle cx="440" cy="520" r="50" fill="#00875a" opacity="0.12" stroke="#00875a" stroke-width="5"/>
    <line x1="325" y1="380" x2="395" y2="355" stroke="#30363d" stroke-width="4" stroke-linecap="round"/>
    <line x1="325" y1="425" x2="395" y2="505" stroke="#30363d" stroke-width="4" stroke-linecap="round"/>
    <line x1="440" y1="390" x2="440" y2="470" stroke="#30363d" stroke-width="4" stroke-linecap="round"/>
  </g>
  <g id="catalog">
    <rect x="870" y="370" width="180" height="230" rx="14" fill="#a5d6ff" opacity="0.1" stroke="#4a9eff" stroke-width="5"/>
    <rect x="870" y="370" width="180" height="50" rx="14" fill="#4a9eff" opacity="0.12"/>
    <line x1="900" y1="460" x2="1020" y2="460" stroke="#4a9eff" stroke-width="3" opacity="0.25"/>
    <line x1="900" y1="500" x2="1020" y2="500" stroke="#4a9eff" stroke-width="3" opacity="0.25"/>
    <line x1="900" y1="540" x2="980" y2="540" stroke="#4a9eff" stroke-width="3" opacity="0.25"/>
    <rect x="855" y="380" width="15" height="210" rx="4" fill="#0056d2" opacity="0.15"/>
  </g>
  <g id="governance">
    <path d="M1560,350 L1680,400 L1680,530 Q1560,640 1440,530 L1440,400 Z" fill="#00c7e6" opacity="0.1" stroke="#00b8d9" stroke-width="5"/>
    <circle cx="1560" cy="460" r="40" fill="none" stroke="#00b8d9" stroke-width="5"/>
    <rect x="1550" y="490" width="20" height="40" rx="4" fill="#00b8d9" opacity="0.4"/>
  </g>
  <!-- GRID PROTOCOL MANIFEST
  template: Icon Banner
  grid_cells_used: 0-15,0-8
  font_sizes: []
  min_font_size: n/a
  text_elements: 0
  palette_colors: [#ffffff, #4a9eff, #0056d2, #9f8fef, #00875a, #00c7e6, #00b8d9, #a5d6ff, #ffab00, #30363d]
  -->
</svg>